<mxfile host="app.diagrams.net" modified="2023-06-07T02:42:48.706Z" agent="Mozilla/5.0 (Macintosh; Intel Mac OS X 10_15_7) AppleWebKit/537.36 (KHTML, like Gecko) Chrome/113.0.0.0 Safari/537.36" etag="E4qAxS_O4tnFHcfFMwGt" version="21.3.7" type="device">
  <diagram id="gHvCJFeYPTMhm9U3yrbL" name="第1頁">
    <mxGraphModel dx="3187" dy="1784" grid="0" gridSize="10" guides="1" tooltips="1" connect="1" arrows="1" fold="1" page="1" pageScale="1" pageWidth="3300" pageHeight="2339" background="#333333" math="0" shadow="0">
      <root>
        <mxCell id="0" />
        <mxCell id="1" parent="0" />
        <mxCell id="guOVYwMFFd89-o3B6rxd-1" value="&lt;font color=&quot;#ff8000&quot;&gt;&lt;br&gt;&lt;/font&gt;" style="rounded=0;whiteSpace=wrap;html=1;fillColor=none;strokeColor=#FF8000;strokeWidth=2;" parent="1" vertex="1">
          <mxGeometry x="109" y="457.25" width="1304" height="663" as="geometry" />
        </mxCell>
        <mxCell id="guOVYwMFFd89-o3B6rxd-2" value="&lt;font color=&quot;#ff8000&quot;&gt;&lt;br&gt;&lt;/font&gt;" style="rounded=0;whiteSpace=wrap;html=1;fillColor=none;strokeColor=#009900;strokeWidth=2;" parent="1" vertex="1">
          <mxGeometry x="1493" y="425" width="423" height="222" as="geometry" />
        </mxCell>
        <mxCell id="guOVYwMFFd89-o3B6rxd-3" value="&lt;font color=&quot;#ffffff&quot; style=&quot;font-size: 40px;&quot;&gt;App Architecture Diagram&amp;nbsp;&lt;/font&gt;" style="text;whiteSpace=wrap;html=1;fontSize=11;fontFamily=Helvetica;fontColor=default;" parent="1" vertex="1">
          <mxGeometry x="44" y="46" width="749" height="73" as="geometry" />
        </mxCell>
        <mxCell id="guOVYwMFFd89-o3B6rxd-4" value="&lt;font color=&quot;#ff8000&quot; style=&quot;font-size: 30px;&quot;&gt;Item layer&lt;/font&gt;" style="text;whiteSpace=wrap;html=1;fontSize=11;fontFamily=Helvetica;fontColor=default;" parent="1" vertex="1">
          <mxGeometry x="102" y="408.75" width="174" height="33" as="geometry" />
        </mxCell>
        <mxCell id="guOVYwMFFd89-o3B6rxd-5" value="" style="rounded=0;whiteSpace=wrap;html=1;fillColor=none;strokeColor=#FF8000;strokeWidth=2;" parent="1" vertex="1">
          <mxGeometry x="461" y="518.75" width="312" height="139" as="geometry" />
        </mxCell>
        <mxCell id="guOVYwMFFd89-o3B6rxd-6" value="" style="rounded=0;whiteSpace=wrap;html=1;fillColor=none;strokeColor=#FF3333;strokeWidth=2;" parent="1" vertex="1">
          <mxGeometry x="134" y="525.75" width="282" height="139" as="geometry" />
        </mxCell>
        <mxCell id="guOVYwMFFd89-o3B6rxd-7" style="edgeStyle=orthogonalEdgeStyle;shape=connector;rounded=0;orthogonalLoop=1;jettySize=auto;html=1;entryX=0;entryY=0.5;entryDx=0;entryDy=0;labelBackgroundColor=default;strokeColor=#CC99FF;fontFamily=Helvetica;fontSize=11;fontColor=default;endArrow=classic;" parent="1" source="guOVYwMFFd89-o3B6rxd-8" target="guOVYwMFFd89-o3B6rxd-65" edge="1">
          <mxGeometry relative="1" as="geometry" />
        </mxCell>
        <mxCell id="guOVYwMFFd89-o3B6rxd-8" value="" style="rounded=0;whiteSpace=wrap;html=1;fillColor=none;strokeColor=#CC99FF;strokeWidth=2;" parent="1" vertex="1">
          <mxGeometry x="231" y="708.75" width="539" height="268" as="geometry" />
        </mxCell>
        <mxCell id="guOVYwMFFd89-o3B6rxd-9" style="edgeStyle=orthogonalEdgeStyle;shape=connector;rounded=0;orthogonalLoop=1;jettySize=auto;html=1;labelBackgroundColor=default;strokeColor=#CC99FF;fontFamily=Helvetica;fontSize=11;fontColor=default;endArrow=classic;endFill=1;elbow=vertical;" parent="1" source="guOVYwMFFd89-o3B6rxd-11" target="guOVYwMFFd89-o3B6rxd-13" edge="1">
          <mxGeometry relative="1" as="geometry" />
        </mxCell>
        <mxCell id="guOVYwMFFd89-o3B6rxd-10" style="edgeStyle=orthogonalEdgeStyle;shape=connector;rounded=0;orthogonalLoop=1;jettySize=auto;html=1;labelBackgroundColor=default;strokeColor=#CC99FF;fontFamily=Helvetica;fontSize=11;fontColor=default;endArrow=classic;endFill=1;elbow=vertical;" parent="1" source="guOVYwMFFd89-o3B6rxd-11" target="guOVYwMFFd89-o3B6rxd-17" edge="1">
          <mxGeometry relative="1" as="geometry" />
        </mxCell>
        <mxCell id="guOVYwMFFd89-o3B6rxd-11" value="&lt;font style=&quot;font-size: 16px;&quot;&gt;&lt;font color=&quot;#cc99ff&quot;&gt;iOS-specific components&lt;/font&gt;&lt;br&gt;&lt;/font&gt;" style="rounded=0;whiteSpace=wrap;html=1;fillColor=none;strokeColor=#CC99FF;strokeWidth=2;" parent="1" vertex="1">
          <mxGeometry x="298.5" y="881.25" width="217" height="76" as="geometry" />
        </mxCell>
        <mxCell id="guOVYwMFFd89-o3B6rxd-12" style="edgeStyle=orthogonalEdgeStyle;shape=connector;rounded=0;orthogonalLoop=1;jettySize=auto;html=1;entryX=0.5;entryY=1;entryDx=0;entryDy=0;labelBackgroundColor=default;strokeColor=#CC99FF;fontFamily=Helvetica;fontSize=11;fontColor=default;endArrow=classic;endFill=1;elbow=vertical;" parent="1" source="guOVYwMFFd89-o3B6rxd-13" target="guOVYwMFFd89-o3B6rxd-15" edge="1">
          <mxGeometry relative="1" as="geometry" />
        </mxCell>
        <mxCell id="guOVYwMFFd89-o3B6rxd-13" value="&lt;font style=&quot;font-size: 16px;&quot;&gt;&lt;font color=&quot;#cc99ff&quot;&gt;Platform-agnostic components&lt;br&gt;(ViewModel)&lt;/font&gt;&lt;br&gt;&lt;/font&gt;" style="rounded=0;whiteSpace=wrap;html=1;fillColor=none;strokeColor=#CC99FF;strokeWidth=2;" parent="1" vertex="1">
          <mxGeometry x="283.75" y="746.75" width="246.5" height="76" as="geometry" />
        </mxCell>
        <mxCell id="guOVYwMFFd89-o3B6rxd-14" value="&lt;span style=&quot;font-family: Helvetica; font-style: normal; font-variant-ligatures: normal; font-variant-caps: normal; letter-spacing: normal; orphans: 2; text-align: center; text-indent: 0px; text-transform: none; widows: 2; word-spacing: 0px; -webkit-text-stroke-width: 0px; text-decoration-thickness: initial; text-decoration-style: initial; text-decoration-color: initial; float: none; display: inline !important;&quot;&gt;&lt;b style=&quot;&quot;&gt;&lt;font color=&quot;#cc99ff&quot; style=&quot;font-size: 20px;&quot;&gt;UI layer&lt;/font&gt;&lt;/b&gt;&lt;/span&gt;" style="text;whiteSpace=wrap;html=1;" parent="1" vertex="1">
          <mxGeometry x="691" y="672.75" width="87" height="33" as="geometry" />
        </mxCell>
        <mxCell id="guOVYwMFFd89-o3B6rxd-15" value="&lt;font style=&quot;font-size: 16px;&quot; color=&quot;#ff8000&quot;&gt;Business logic components&lt;/font&gt;" style="rounded=0;whiteSpace=wrap;html=1;fillColor=none;strokeColor=#FF8000;strokeWidth=2;" parent="1" vertex="1">
          <mxGeometry x="495.5" y="550.75" width="243" height="76" as="geometry" />
        </mxCell>
        <mxCell id="guOVYwMFFd89-o3B6rxd-16" value="&lt;span style=&quot;font-family: Helvetica; font-style: normal; font-variant-ligatures: normal; font-variant-caps: normal; letter-spacing: normal; orphans: 2; text-align: center; text-indent: 0px; text-transform: none; widows: 2; word-spacing: 0px; -webkit-text-stroke-width: 0px; text-decoration-thickness: initial; text-decoration-style: initial; text-decoration-color: initial; float: none; display: inline !important;&quot;&gt;&lt;b style=&quot;&quot;&gt;&lt;font color=&quot;#ff8000&quot; style=&quot;font-size: 20px;&quot;&gt;Feature layer&lt;/font&gt;&lt;/b&gt;&lt;/span&gt;" style="text;whiteSpace=wrap;html=1;" parent="1" vertex="1">
          <mxGeometry x="641" y="478.75" width="132" height="33" as="geometry" />
        </mxCell>
        <mxCell id="guOVYwMFFd89-o3B6rxd-17" value="&lt;font style=&quot;font-size: 16px;&quot;&gt;&lt;b style=&quot;border-color: var(--border-color); font-size: 12px;&quot;&gt;&lt;font color=&quot;#97d077&quot; style=&quot;border-color: var(--border-color); font-size: 20px;&quot;&gt;UIKit&lt;/font&gt;&lt;/b&gt;&lt;br&gt;&lt;/font&gt;" style="rounded=0;whiteSpace=wrap;html=1;fillColor=none;strokeColor=#97D077;strokeWidth=2;" parent="1" vertex="1">
          <mxGeometry x="344" y="1015.75" width="124.5" height="76" as="geometry" />
        </mxCell>
        <mxCell id="guOVYwMFFd89-o3B6rxd-18" value="&lt;span style=&quot;font-family: Helvetica; font-style: normal; font-variant-ligatures: normal; font-variant-caps: normal; letter-spacing: normal; orphans: 2; text-align: center; text-indent: 0px; text-transform: none; widows: 2; word-spacing: 0px; -webkit-text-stroke-width: 0px; text-decoration-thickness: initial; text-decoration-style: initial; text-decoration-color: initial; float: none; display: inline !important;&quot;&gt;&lt;b style=&quot;&quot;&gt;&lt;font color=&quot;#ff3333&quot; style=&quot;font-size: 20px;&quot;&gt;Stub layer&lt;/font&gt;&lt;/b&gt;&lt;/span&gt;" style="text;whiteSpace=wrap;html=1;" parent="1" vertex="1">
          <mxGeometry x="290" y="485.75" width="127" height="33" as="geometry" />
        </mxCell>
        <mxCell id="guOVYwMFFd89-o3B6rxd-19" style="edgeStyle=orthogonalEdgeStyle;shape=connector;rounded=0;orthogonalLoop=1;jettySize=auto;html=1;labelBackgroundColor=default;strokeColor=#FF3333;fontFamily=Helvetica;fontSize=11;fontColor=default;endArrow=classic;endFill=1;elbow=vertical;" parent="1" source="guOVYwMFFd89-o3B6rxd-20" target="guOVYwMFFd89-o3B6rxd-15" edge="1">
          <mxGeometry relative="1" as="geometry" />
        </mxCell>
        <mxCell id="guOVYwMFFd89-o3B6rxd-20" value="&lt;font color=&quot;#ff3333&quot; style=&quot;font-size: 16px;&quot;&gt;Business logic abstraction implementation components&lt;/font&gt;" style="rounded=0;whiteSpace=wrap;html=1;fillColor=none;strokeColor=#FF3333;strokeWidth=2;" parent="1" vertex="1">
          <mxGeometry x="158" y="550.75" width="227" height="76" as="geometry" />
        </mxCell>
        <mxCell id="guOVYwMFFd89-o3B6rxd-21" value="" style="rounded=0;whiteSpace=wrap;html=1;fillColor=none;strokeColor=#7EA6E0;strokeWidth=2;" parent="1" vertex="1">
          <mxGeometry x="821" y="525.75" width="553" height="249" as="geometry" />
        </mxCell>
        <mxCell id="guOVYwMFFd89-o3B6rxd-22" value="&lt;span style=&quot;font-family: Helvetica; font-style: normal; font-variant-ligatures: normal; font-variant-caps: normal; letter-spacing: normal; orphans: 2; text-align: center; text-indent: 0px; text-transform: none; widows: 2; word-spacing: 0px; -webkit-text-stroke-width: 0px; text-decoration-thickness: initial; text-decoration-style: initial; text-decoration-color: initial; float: none; display: inline !important;&quot;&gt;&lt;b style=&quot;&quot;&gt;&lt;font color=&quot;#7ea6e0&quot; style=&quot;font-size: 20px;&quot;&gt;Local layer&lt;/font&gt;&lt;/b&gt;&lt;/span&gt;" style="text;whiteSpace=wrap;html=1;" parent="1" vertex="1">
          <mxGeometry x="1242" y="484.75" width="132" height="33" as="geometry" />
        </mxCell>
        <mxCell id="guOVYwMFFd89-o3B6rxd-23" style="edgeStyle=orthogonalEdgeStyle;shape=connector;rounded=0;orthogonalLoop=1;jettySize=auto;html=1;labelBackgroundColor=default;strokeColor=#7EA6E0;fontFamily=Helvetica;fontSize=11;fontColor=default;endArrow=classic;endFill=1;elbow=vertical;" parent="1" source="guOVYwMFFd89-o3B6rxd-26" target="guOVYwMFFd89-o3B6rxd-28" edge="1">
          <mxGeometry relative="1" as="geometry" />
        </mxCell>
        <mxCell id="guOVYwMFFd89-o3B6rxd-24" style="edgeStyle=orthogonalEdgeStyle;shape=connector;rounded=0;orthogonalLoop=1;jettySize=auto;html=1;labelBackgroundColor=default;strokeColor=#7EA6E0;fontFamily=Helvetica;fontSize=11;fontColor=default;endArrow=classic;endFill=1;elbow=vertical;" parent="1" source="guOVYwMFFd89-o3B6rxd-26" target="guOVYwMFFd89-o3B6rxd-15" edge="1">
          <mxGeometry relative="1" as="geometry" />
        </mxCell>
        <mxCell id="guOVYwMFFd89-o3B6rxd-25" style="edgeStyle=orthogonalEdgeStyle;shape=connector;rounded=0;orthogonalLoop=1;jettySize=auto;html=1;entryX=0;entryY=0.5;entryDx=0;entryDy=0;labelBackgroundColor=default;strokeColor=#7EA6E0;fontFamily=Helvetica;fontSize=11;fontColor=default;endArrow=classic;" parent="1" source="guOVYwMFFd89-o3B6rxd-26" target="guOVYwMFFd89-o3B6rxd-35" edge="1">
          <mxGeometry relative="1" as="geometry">
            <Array as="points">
              <mxPoint x="983" y="708.75" />
            </Array>
          </mxGeometry>
        </mxCell>
        <mxCell id="guOVYwMFFd89-o3B6rxd-26" value="&lt;font color=&quot;#7ea6e0&quot; style=&quot;font-size: 16px;&quot;&gt;Business logic abstraction implementation components&lt;/font&gt;" style="rounded=0;whiteSpace=wrap;html=1;fillColor=none;strokeColor=#7EA6E0;strokeWidth=2;" parent="1" vertex="1">
          <mxGeometry x="869" y="550.75" width="227" height="76" as="geometry" />
        </mxCell>
        <mxCell id="guOVYwMFFd89-o3B6rxd-27" style="edgeStyle=orthogonalEdgeStyle;shape=connector;rounded=0;orthogonalLoop=1;jettySize=auto;html=1;entryX=0.5;entryY=0;entryDx=0;entryDy=0;labelBackgroundColor=default;strokeColor=#7EA6E0;fontFamily=Helvetica;fontSize=11;fontColor=default;endArrow=classic;" parent="1" source="guOVYwMFFd89-o3B6rxd-28" target="guOVYwMFFd89-o3B6rxd-35" edge="1">
          <mxGeometry relative="1" as="geometry" />
        </mxCell>
        <mxCell id="guOVYwMFFd89-o3B6rxd-28" value="&lt;font color=&quot;#7ea6e0&quot; style=&quot;font-size: 16px;&quot;&gt;Local-specific abstraction&lt;/font&gt;" style="rounded=0;whiteSpace=wrap;html=1;fillColor=none;strokeColor=#7EA6E0;strokeWidth=2;" parent="1" vertex="1">
          <mxGeometry x="1151" y="550.75" width="205" height="76" as="geometry" />
        </mxCell>
        <mxCell id="guOVYwMFFd89-o3B6rxd-29" style="edgeStyle=orthogonalEdgeStyle;rounded=0;orthogonalLoop=1;jettySize=auto;html=1;entryX=1;entryY=0.5;entryDx=0;entryDy=0;strokeColor=#CC99FF;" parent="1" source="guOVYwMFFd89-o3B6rxd-32" target="guOVYwMFFd89-o3B6rxd-13" edge="1">
          <mxGeometry relative="1" as="geometry" />
        </mxCell>
        <mxCell id="guOVYwMFFd89-o3B6rxd-30" style="edgeStyle=orthogonalEdgeStyle;shape=connector;rounded=0;orthogonalLoop=1;jettySize=auto;html=1;entryX=1;entryY=0.5;entryDx=0;entryDy=0;labelBackgroundColor=default;strokeColor=#CC99FF;fontFamily=Helvetica;fontSize=11;fontColor=default;endArrow=classic;" parent="1" source="guOVYwMFFd89-o3B6rxd-32" target="guOVYwMFFd89-o3B6rxd-11" edge="1">
          <mxGeometry relative="1" as="geometry">
            <Array as="points">
              <mxPoint x="678" y="919.75" />
            </Array>
          </mxGeometry>
        </mxCell>
        <mxCell id="guOVYwMFFd89-o3B6rxd-31" style="edgeStyle=orthogonalEdgeStyle;shape=connector;rounded=0;orthogonalLoop=1;jettySize=auto;html=1;entryX=0.75;entryY=1;entryDx=0;entryDy=0;labelBackgroundColor=default;strokeColor=#CC99FF;fontFamily=Helvetica;fontSize=11;fontColor=default;endArrow=classic;" parent="1" source="guOVYwMFFd89-o3B6rxd-32" target="guOVYwMFFd89-o3B6rxd-15" edge="1">
          <mxGeometry relative="1" as="geometry">
            <Array as="points">
              <mxPoint x="678" y="726.75" />
              <mxPoint x="678" y="726.75" />
            </Array>
          </mxGeometry>
        </mxCell>
        <mxCell id="guOVYwMFFd89-o3B6rxd-32" value="&lt;font style=&quot;font-size: 16px;&quot;&gt;&lt;font color=&quot;#cc99ff&quot;&gt;Composer&lt;/font&gt;&lt;br&gt;&lt;/font&gt;" style="rounded=0;whiteSpace=wrap;html=1;fillColor=none;strokeColor=#CC99FF;strokeWidth=2;" parent="1" vertex="1">
          <mxGeometry x="603" y="746.75" width="150" height="76" as="geometry" />
        </mxCell>
        <mxCell id="guOVYwMFFd89-o3B6rxd-33" value="&lt;font color=&quot;#ff8000&quot;&gt;&lt;br&gt;&lt;/font&gt;" style="rounded=0;whiteSpace=wrap;html=1;fillColor=none;strokeColor=#FF6666;strokeWidth=2;" parent="1" vertex="1">
          <mxGeometry x="2017" y="449.25" width="1170" height="685" as="geometry" />
        </mxCell>
        <mxCell id="guOVYwMFFd89-o3B6rxd-34" value="&lt;font color=&quot;#ff6666&quot; style=&quot;font-size: 30px;&quot;&gt;Order layer&lt;/font&gt;" style="text;whiteSpace=wrap;html=1;fontSize=11;fontFamily=Helvetica;fontColor=default;" parent="1" vertex="1">
          <mxGeometry x="3032" y="402" width="214" height="33" as="geometry" />
        </mxCell>
        <mxCell id="guOVYwMFFd89-o3B6rxd-35" value="&lt;font color=&quot;#7ea6e0&quot; style=&quot;font-size: 16px;&quot;&gt;Local-specific Model&lt;/font&gt;" style="rounded=0;whiteSpace=wrap;html=1;fillColor=none;strokeColor=#7EA6E0;strokeWidth=2;" parent="1" vertex="1">
          <mxGeometry x="1151" y="670.75" width="205" height="76" as="geometry" />
        </mxCell>
        <mxCell id="guOVYwMFFd89-o3B6rxd-36" value="" style="rounded=0;whiteSpace=wrap;html=1;fillColor=none;strokeColor=#FF8000;strokeWidth=2;" parent="1" vertex="1">
          <mxGeometry x="2647.5" y="517.25" width="312" height="139" as="geometry" />
        </mxCell>
        <mxCell id="guOVYwMFFd89-o3B6rxd-37" style="edgeStyle=orthogonalEdgeStyle;shape=connector;rounded=0;orthogonalLoop=1;jettySize=auto;html=1;entryX=1;entryY=0.5;entryDx=0;entryDy=0;labelBackgroundColor=default;strokeColor=#CC99FF;fontFamily=Helvetica;fontSize=11;fontColor=default;endArrow=classic;" parent="1" source="guOVYwMFFd89-o3B6rxd-38" target="guOVYwMFFd89-o3B6rxd-65" edge="1">
          <mxGeometry relative="1" as="geometry" />
        </mxCell>
        <mxCell id="guOVYwMFFd89-o3B6rxd-38" value="" style="rounded=0;whiteSpace=wrap;html=1;fillColor=none;strokeColor=#CC99FF;strokeWidth=2;" parent="1" vertex="1">
          <mxGeometry x="2628.5" y="707.25" width="539" height="268" as="geometry" />
        </mxCell>
        <mxCell id="guOVYwMFFd89-o3B6rxd-39" style="edgeStyle=orthogonalEdgeStyle;shape=connector;rounded=0;orthogonalLoop=1;jettySize=auto;html=1;labelBackgroundColor=default;strokeColor=#CC99FF;fontFamily=Helvetica;fontSize=11;fontColor=default;endArrow=classic;endFill=1;elbow=vertical;" parent="1" source="guOVYwMFFd89-o3B6rxd-41" target="guOVYwMFFd89-o3B6rxd-43" edge="1">
          <mxGeometry relative="1" as="geometry" />
        </mxCell>
        <mxCell id="guOVYwMFFd89-o3B6rxd-40" style="edgeStyle=orthogonalEdgeStyle;shape=connector;rounded=0;orthogonalLoop=1;jettySize=auto;html=1;labelBackgroundColor=default;strokeColor=#CC99FF;fontFamily=Helvetica;fontSize=11;fontColor=default;endArrow=classic;endFill=1;elbow=vertical;" parent="1" source="guOVYwMFFd89-o3B6rxd-41" target="guOVYwMFFd89-o3B6rxd-47" edge="1">
          <mxGeometry relative="1" as="geometry" />
        </mxCell>
        <mxCell id="guOVYwMFFd89-o3B6rxd-41" value="&lt;font style=&quot;font-size: 16px;&quot;&gt;&lt;font color=&quot;#cc99ff&quot;&gt;iOS-specific components&lt;/font&gt;&lt;br&gt;&lt;/font&gt;" style="rounded=0;whiteSpace=wrap;html=1;fillColor=none;strokeColor=#CC99FF;strokeWidth=2;" parent="1" vertex="1">
          <mxGeometry x="2696" y="879.75" width="217" height="76" as="geometry" />
        </mxCell>
        <mxCell id="guOVYwMFFd89-o3B6rxd-42" style="edgeStyle=orthogonalEdgeStyle;shape=connector;rounded=0;orthogonalLoop=1;jettySize=auto;html=1;entryX=0.5;entryY=1;entryDx=0;entryDy=0;labelBackgroundColor=default;strokeColor=#CC99FF;fontFamily=Helvetica;fontSize=11;fontColor=default;endArrow=classic;endFill=1;elbow=vertical;" parent="1" source="guOVYwMFFd89-o3B6rxd-43" target="guOVYwMFFd89-o3B6rxd-45" edge="1">
          <mxGeometry relative="1" as="geometry" />
        </mxCell>
        <mxCell id="guOVYwMFFd89-o3B6rxd-43" value="&lt;font style=&quot;font-size: 16px;&quot;&gt;&lt;font color=&quot;#cc99ff&quot;&gt;Platform-agnostic components&lt;br&gt;(ViewModel)&lt;/font&gt;&lt;br&gt;&lt;/font&gt;" style="rounded=0;whiteSpace=wrap;html=1;fillColor=none;strokeColor=#CC99FF;strokeWidth=2;" parent="1" vertex="1">
          <mxGeometry x="2681.25" y="745.25" width="246.5" height="76" as="geometry" />
        </mxCell>
        <mxCell id="guOVYwMFFd89-o3B6rxd-44" value="&lt;span style=&quot;font-family: Helvetica; font-style: normal; font-variant-ligatures: normal; font-variant-caps: normal; letter-spacing: normal; orphans: 2; text-align: center; text-indent: 0px; text-transform: none; widows: 2; word-spacing: 0px; -webkit-text-stroke-width: 0px; text-decoration-thickness: initial; text-decoration-style: initial; text-decoration-color: initial; float: none; display: inline !important;&quot;&gt;&lt;b style=&quot;&quot;&gt;&lt;font color=&quot;#cc99ff&quot; style=&quot;font-size: 20px;&quot;&gt;UI layer&lt;/font&gt;&lt;/b&gt;&lt;/span&gt;" style="text;whiteSpace=wrap;html=1;" parent="1" vertex="1">
          <mxGeometry x="3088.5" y="671.25" width="87" height="33" as="geometry" />
        </mxCell>
        <mxCell id="guOVYwMFFd89-o3B6rxd-45" value="&lt;font style=&quot;font-size: 16px;&quot; color=&quot;#ff8000&quot;&gt;Business logic components&lt;/font&gt;" style="rounded=0;whiteSpace=wrap;html=1;fillColor=none;strokeColor=#FF8000;strokeWidth=2;" parent="1" vertex="1">
          <mxGeometry x="2682" y="549.25" width="243" height="76" as="geometry" />
        </mxCell>
        <mxCell id="guOVYwMFFd89-o3B6rxd-46" value="&lt;span style=&quot;font-family: Helvetica; font-style: normal; font-variant-ligatures: normal; font-variant-caps: normal; letter-spacing: normal; orphans: 2; text-align: center; text-indent: 0px; text-transform: none; widows: 2; word-spacing: 0px; -webkit-text-stroke-width: 0px; text-decoration-thickness: initial; text-decoration-style: initial; text-decoration-color: initial; float: none; display: inline !important;&quot;&gt;&lt;b style=&quot;&quot;&gt;&lt;font color=&quot;#ff8000&quot; style=&quot;font-size: 20px;&quot;&gt;Feature layer&lt;/font&gt;&lt;/b&gt;&lt;/span&gt;" style="text;whiteSpace=wrap;html=1;" parent="1" vertex="1">
          <mxGeometry x="2827.5" y="477.25" width="132" height="33" as="geometry" />
        </mxCell>
        <mxCell id="guOVYwMFFd89-o3B6rxd-47" value="&lt;font style=&quot;font-size: 16px;&quot;&gt;&lt;b style=&quot;border-color: var(--border-color); font-size: 12px;&quot;&gt;&lt;font color=&quot;#97d077&quot; style=&quot;border-color: var(--border-color); font-size: 20px;&quot;&gt;UIKit&lt;/font&gt;&lt;/b&gt;&lt;br&gt;&lt;/font&gt;" style="rounded=0;whiteSpace=wrap;html=1;fillColor=none;strokeColor=#97D077;strokeWidth=2;" parent="1" vertex="1">
          <mxGeometry x="2741.5" y="1014.25" width="124.5" height="76" as="geometry" />
        </mxCell>
        <mxCell id="guOVYwMFFd89-o3B6rxd-48" value="" style="rounded=0;whiteSpace=wrap;html=1;fillColor=none;strokeColor=#7EA6E0;strokeWidth=2;" parent="1" vertex="1">
          <mxGeometry x="2052.5" y="523.25" width="520" height="266" as="geometry" />
        </mxCell>
        <mxCell id="guOVYwMFFd89-o3B6rxd-49" value="&lt;span style=&quot;font-family: Helvetica; font-style: normal; font-variant-ligatures: normal; font-variant-caps: normal; letter-spacing: normal; orphans: 2; text-align: center; text-indent: 0px; text-transform: none; widows: 2; word-spacing: 0px; -webkit-text-stroke-width: 0px; text-decoration-thickness: initial; text-decoration-style: initial; text-decoration-color: initial; float: none; display: inline !important;&quot;&gt;&lt;b style=&quot;&quot;&gt;&lt;font color=&quot;#7ea6e0&quot; style=&quot;font-size: 20px;&quot;&gt;Local layer&lt;/font&gt;&lt;/b&gt;&lt;/span&gt;" style="text;whiteSpace=wrap;html=1;" parent="1" vertex="1">
          <mxGeometry x="2440.5" y="482.25" width="132" height="33" as="geometry" />
        </mxCell>
        <mxCell id="guOVYwMFFd89-o3B6rxd-50" style="edgeStyle=orthogonalEdgeStyle;shape=connector;rounded=0;orthogonalLoop=1;jettySize=auto;html=1;labelBackgroundColor=default;strokeColor=#7EA6E0;fontFamily=Helvetica;fontSize=11;fontColor=default;endArrow=classic;endFill=1;elbow=vertical;" parent="1" source="guOVYwMFFd89-o3B6rxd-53" target="guOVYwMFFd89-o3B6rxd-55" edge="1">
          <mxGeometry relative="1" as="geometry" />
        </mxCell>
        <mxCell id="guOVYwMFFd89-o3B6rxd-51" style="edgeStyle=orthogonalEdgeStyle;shape=connector;rounded=0;orthogonalLoop=1;jettySize=auto;html=1;labelBackgroundColor=default;strokeColor=#7EA6E0;fontFamily=Helvetica;fontSize=11;fontColor=default;endArrow=classic;endFill=1;elbow=vertical;" parent="1" source="guOVYwMFFd89-o3B6rxd-53" target="guOVYwMFFd89-o3B6rxd-45" edge="1">
          <mxGeometry relative="1" as="geometry" />
        </mxCell>
        <mxCell id="guOVYwMFFd89-o3B6rxd-52" style="edgeStyle=orthogonalEdgeStyle;shape=connector;rounded=0;orthogonalLoop=1;jettySize=auto;html=1;entryX=1;entryY=0.5;entryDx=0;entryDy=0;labelBackgroundColor=default;strokeColor=#7EA6E0;fontFamily=Helvetica;fontSize=11;fontColor=default;endArrow=classic;" parent="1" source="guOVYwMFFd89-o3B6rxd-53" target="guOVYwMFFd89-o3B6rxd-60" edge="1">
          <mxGeometry relative="1" as="geometry">
            <Array as="points">
              <mxPoint x="2440.5" y="729.25" />
            </Array>
          </mxGeometry>
        </mxCell>
        <mxCell id="guOVYwMFFd89-o3B6rxd-53" value="&lt;font color=&quot;#7ea6e0&quot; style=&quot;font-size: 16px;&quot;&gt;Business logic abstraction implementation components&lt;/font&gt;" style="rounded=0;whiteSpace=wrap;html=1;fillColor=none;strokeColor=#7EA6E0;strokeWidth=2;" parent="1" vertex="1">
          <mxGeometry x="2326.5" y="548.75" width="227" height="76" as="geometry" />
        </mxCell>
        <mxCell id="guOVYwMFFd89-o3B6rxd-54" style="edgeStyle=orthogonalEdgeStyle;shape=connector;rounded=0;orthogonalLoop=1;jettySize=auto;html=1;entryX=0.5;entryY=0;entryDx=0;entryDy=0;labelBackgroundColor=default;strokeColor=#7EA6E0;fontFamily=Helvetica;fontSize=11;fontColor=default;endArrow=classic;" parent="1" source="guOVYwMFFd89-o3B6rxd-55" target="guOVYwMFFd89-o3B6rxd-60" edge="1">
          <mxGeometry relative="1" as="geometry" />
        </mxCell>
        <mxCell id="guOVYwMFFd89-o3B6rxd-55" value="&lt;font color=&quot;#7ea6e0&quot; style=&quot;font-size: 16px;&quot;&gt;Local-specific abstraction&lt;/font&gt;" style="rounded=0;whiteSpace=wrap;html=1;fillColor=none;strokeColor=#7EA6E0;strokeWidth=2;" parent="1" vertex="1">
          <mxGeometry x="2079.5" y="548.75" width="205" height="76" as="geometry" />
        </mxCell>
        <mxCell id="guOVYwMFFd89-o3B6rxd-56" style="edgeStyle=orthogonalEdgeStyle;rounded=0;orthogonalLoop=1;jettySize=auto;html=1;entryX=1;entryY=0.5;entryDx=0;entryDy=0;strokeColor=#CC99FF;" parent="1" source="guOVYwMFFd89-o3B6rxd-59" target="guOVYwMFFd89-o3B6rxd-43" edge="1">
          <mxGeometry relative="1" as="geometry" />
        </mxCell>
        <mxCell id="guOVYwMFFd89-o3B6rxd-57" style="edgeStyle=orthogonalEdgeStyle;shape=connector;rounded=0;orthogonalLoop=1;jettySize=auto;html=1;entryX=1;entryY=0.5;entryDx=0;entryDy=0;labelBackgroundColor=default;strokeColor=#CC99FF;fontFamily=Helvetica;fontSize=11;fontColor=default;endArrow=classic;" parent="1" source="guOVYwMFFd89-o3B6rxd-59" target="guOVYwMFFd89-o3B6rxd-41" edge="1">
          <mxGeometry relative="1" as="geometry">
            <Array as="points">
              <mxPoint x="3075.5" y="918.25" />
            </Array>
          </mxGeometry>
        </mxCell>
        <mxCell id="guOVYwMFFd89-o3B6rxd-58" style="edgeStyle=orthogonalEdgeStyle;shape=connector;rounded=0;orthogonalLoop=1;jettySize=auto;html=1;entryX=1;entryY=0.5;entryDx=0;entryDy=0;labelBackgroundColor=default;strokeColor=#CC99FF;fontFamily=Helvetica;fontSize=11;fontColor=default;endArrow=classic;" parent="1" source="guOVYwMFFd89-o3B6rxd-59" target="guOVYwMFFd89-o3B6rxd-45" edge="1">
          <mxGeometry relative="1" as="geometry">
            <Array as="points">
              <mxPoint x="3075.5" y="587.25" />
            </Array>
          </mxGeometry>
        </mxCell>
        <mxCell id="guOVYwMFFd89-o3B6rxd-59" value="&lt;font style=&quot;font-size: 16px;&quot;&gt;&lt;font color=&quot;#cc99ff&quot;&gt;Composer&lt;/font&gt;&lt;br&gt;&lt;/font&gt;" style="rounded=0;whiteSpace=wrap;html=1;fillColor=none;strokeColor=#CC99FF;strokeWidth=2;" parent="1" vertex="1">
          <mxGeometry x="3000.5" y="745.25" width="150" height="76" as="geometry" />
        </mxCell>
        <mxCell id="guOVYwMFFd89-o3B6rxd-60" value="&lt;font color=&quot;#7ea6e0&quot; style=&quot;font-size: 16px;&quot;&gt;Local-specific Model&lt;/font&gt;" style="rounded=0;whiteSpace=wrap;html=1;fillColor=none;strokeColor=#7EA6E0;strokeWidth=2;" parent="1" vertex="1">
          <mxGeometry x="2079.5" y="691.25" width="205" height="76" as="geometry" />
        </mxCell>
        <mxCell id="guOVYwMFFd89-o3B6rxd-61" style="edgeStyle=orthogonalEdgeStyle;shape=connector;rounded=0;orthogonalLoop=1;jettySize=auto;html=1;entryX=0.5;entryY=0;entryDx=0;entryDy=0;labelBackgroundColor=default;strokeColor=#FFFF66;fontFamily=Helvetica;fontSize=11;fontColor=default;endArrow=classic;" parent="1" source="guOVYwMFFd89-o3B6rxd-64" target="guOVYwMFFd89-o3B6rxd-1" edge="1">
          <mxGeometry relative="1" as="geometry" />
        </mxCell>
        <mxCell id="guOVYwMFFd89-o3B6rxd-62" style="edgeStyle=orthogonalEdgeStyle;shape=connector;rounded=0;orthogonalLoop=1;jettySize=auto;html=1;entryX=0.5;entryY=0;entryDx=0;entryDy=0;labelBackgroundColor=default;strokeColor=#FFFF66;fontFamily=Helvetica;fontSize=11;fontColor=default;endArrow=classic;" parent="1" source="guOVYwMFFd89-o3B6rxd-64" target="guOVYwMFFd89-o3B6rxd-2" edge="1">
          <mxGeometry relative="1" as="geometry" />
        </mxCell>
        <mxCell id="guOVYwMFFd89-o3B6rxd-63" style="edgeStyle=orthogonalEdgeStyle;shape=connector;rounded=0;orthogonalLoop=1;jettySize=auto;html=1;labelBackgroundColor=default;strokeColor=#FFFF66;fontFamily=Helvetica;fontSize=11;fontColor=default;endArrow=classic;" parent="1" source="guOVYwMFFd89-o3B6rxd-64" target="guOVYwMFFd89-o3B6rxd-33" edge="1">
          <mxGeometry relative="1" as="geometry" />
        </mxCell>
        <mxCell id="guOVYwMFFd89-o3B6rxd-64" value="&lt;font style=&quot;font-size: 30px;&quot; color=&quot;#ffff66&quot;&gt;Composition layer&lt;/font&gt;" style="rounded=0;whiteSpace=wrap;html=1;fillColor=none;strokeColor=#FFFF66;strokeWidth=2;" parent="1" vertex="1">
          <mxGeometry x="1535.5" y="114" width="338" height="167" as="geometry" />
        </mxCell>
        <mxCell id="guOVYwMFFd89-o3B6rxd-65" value="&lt;font style=&quot;font-size: 30px;&quot; color=&quot;#cc99ff&quot;&gt;Shared layer&lt;/font&gt;" style="rounded=0;whiteSpace=wrap;html=1;fillColor=none;strokeColor=#CC99FF;strokeWidth=2;" parent="1" vertex="1">
          <mxGeometry x="1539" y="918" width="289" height="111" as="geometry" />
        </mxCell>
        <mxCell id="guOVYwMFFd89-o3B6rxd-66" style="edgeStyle=orthogonalEdgeStyle;shape=connector;rounded=0;orthogonalLoop=1;jettySize=auto;html=1;labelBackgroundColor=default;strokeColor=#009900;fontFamily=Helvetica;fontSize=11;fontColor=default;endArrow=classic;" parent="1" source="guOVYwMFFd89-o3B6rxd-72" target="guOVYwMFFd89-o3B6rxd-73" edge="1">
          <mxGeometry relative="1" as="geometry" />
        </mxCell>
        <mxCell id="guOVYwMFFd89-o3B6rxd-67" style="edgeStyle=orthogonalEdgeStyle;shape=connector;rounded=0;orthogonalLoop=1;jettySize=auto;html=1;entryX=1;entryY=0.5;entryDx=0;entryDy=0;labelBackgroundColor=default;strokeColor=#009900;fontFamily=Helvetica;fontSize=11;fontColor=default;endArrow=classic;" parent="1" source="guOVYwMFFd89-o3B6rxd-72" target="guOVYwMFFd89-o3B6rxd-28" edge="1">
          <mxGeometry relative="1" as="geometry" />
        </mxCell>
        <mxCell id="guOVYwMFFd89-o3B6rxd-68" style="edgeStyle=orthogonalEdgeStyle;shape=connector;rounded=0;orthogonalLoop=1;jettySize=auto;html=1;entryX=1;entryY=0.5;entryDx=0;entryDy=0;labelBackgroundColor=default;strokeColor=#009900;fontFamily=Helvetica;fontSize=11;fontColor=default;endArrow=classic;" parent="1" source="guOVYwMFFd89-o3B6rxd-72" target="guOVYwMFFd89-o3B6rxd-35" edge="1">
          <mxGeometry relative="1" as="geometry" />
        </mxCell>
        <mxCell id="guOVYwMFFd89-o3B6rxd-69" style="edgeStyle=orthogonalEdgeStyle;shape=connector;rounded=0;orthogonalLoop=1;jettySize=auto;html=1;entryX=0;entryY=0.5;entryDx=0;entryDy=0;labelBackgroundColor=default;strokeColor=#009900;fontFamily=Helvetica;fontSize=11;fontColor=default;endArrow=classic;" parent="1" source="guOVYwMFFd89-o3B6rxd-72" target="guOVYwMFFd89-o3B6rxd-55" edge="1">
          <mxGeometry relative="1" as="geometry" />
        </mxCell>
        <mxCell id="guOVYwMFFd89-o3B6rxd-70" style="edgeStyle=orthogonalEdgeStyle;shape=connector;rounded=0;orthogonalLoop=1;jettySize=auto;html=1;entryX=0;entryY=0.5;entryDx=0;entryDy=0;labelBackgroundColor=default;strokeColor=#009900;fontFamily=Helvetica;fontSize=11;fontColor=default;endArrow=classic;" parent="1" source="guOVYwMFFd89-o3B6rxd-72" target="guOVYwMFFd89-o3B6rxd-60" edge="1">
          <mxGeometry relative="1" as="geometry" />
        </mxCell>
        <mxCell id="guOVYwMFFd89-o3B6rxd-71" style="edgeStyle=orthogonalEdgeStyle;shape=connector;rounded=0;orthogonalLoop=1;jettySize=auto;html=1;entryX=0.5;entryY=1;entryDx=0;entryDy=0;labelBackgroundColor=default;strokeColor=#009900;fontFamily=Helvetica;fontSize=11;fontColor=default;endArrow=classic;" parent="1" source="guOVYwMFFd89-o3B6rxd-72" target="guOVYwMFFd89-o3B6rxd-74" edge="1">
          <mxGeometry relative="1" as="geometry" />
        </mxCell>
        <mxCell id="guOVYwMFFd89-o3B6rxd-72" value="&lt;font color=&quot;#009900&quot; style=&quot;font-size: 16px;&quot;&gt;Local-specific abstraction implementation&lt;/font&gt;" style="rounded=0;whiteSpace=wrap;html=1;fillColor=none;strokeColor=#009900;strokeWidth=2;" parent="1" vertex="1">
          <mxGeometry x="1583" y="549" width="205" height="76" as="geometry" />
        </mxCell>
        <mxCell id="guOVYwMFFd89-o3B6rxd-73" value="&lt;font style=&quot;font-size: 16px;&quot; color=&quot;#ffffff&quot;&gt;Database&lt;/font&gt;" style="shape=card;whiteSpace=wrap;html=1;fontFamily=Helvetica;fontSize=11;fontColor=default;fillColor=#009900;strokeColor=none;" parent="1" vertex="1">
          <mxGeometry x="1604" y="720" width="162" height="89" as="geometry" />
        </mxCell>
        <mxCell id="guOVYwMFFd89-o3B6rxd-74" value="&lt;font color=&quot;#009900&quot; style=&quot;font-size: 16px;&quot;&gt;CoreData-specific Model&lt;/font&gt;" style="rounded=0;whiteSpace=wrap;html=1;fillColor=none;strokeColor=#009900;strokeWidth=2;" parent="1" vertex="1">
          <mxGeometry x="1583" y="455.5" width="205" height="57.5" as="geometry" />
        </mxCell>
        <mxCell id="guOVYwMFFd89-o3B6rxd-75" value="&lt;font color=&quot;#009900&quot; style=&quot;font-size: 30px;&quot;&gt;CoreData layer&lt;/font&gt;" style="text;whiteSpace=wrap;html=1;fontSize=11;fontFamily=Helvetica;fontColor=default;" parent="1" vertex="1">
          <mxGeometry x="1715" y="378" width="247" height="33" as="geometry" />
        </mxCell>
      </root>
    </mxGraphModel>
  </diagram>
</mxfile>
